# xmcd CD database file
#
# Track frame offsets:
#	150
#	14884
#	31691
#	50940
#	73120
#	90836
#	108752
#	123512
#	138777
#	153060
#	169825
#	185900
#
# Disc length: 2676 seconds
#
# Revision: 0
# Processed by: cddbd v1.5.2PL0 Copyright (c) Steve Scherf et al.
# Submitted via: CDex 1.51
#
DISCID=9d0a720c
DTITLE=R&R - The Rhythm Of Art
DYEAR=2003
DGENRE=Jazz
TTITLE0=Cool Blue Sax
TTITLE1=Etnotic
TTITLE2=Prophecy
TTITLE3=Fletch
TTITLE4=Running Man
TTITLE5=A Change In Your Life
TTITLE6=Sax My Six
TTITLE7=Transmission
TTITLE8=Paint It Black
TTITLE9=Rock You Like A Hurricane
TTITLE10=Still Loving You
TTITLE11=Talk To Me
EXTD=YEAR: 2003
EXTT0=
EXTT1=
EXTT2=
EXTT3=
EXTT4=
EXTT5=
EXTT6=
EXTT7=
EXTT8=
EXTT9=
EXTT10=
EXTT11=
PLAYORDER=
